<svg xmlns="http://www.w3.org/2000/svg" viewBox="0 0 127.57 100"><title>tile-github</title><path fill="#25467a" d="M112.53 69.92H22.31L7.27 97.49h120.3l-15.04-27.57z"/><path fill="#19273c" d="M88.47 85.97h-42.1l-3.01 8.52h48.12l-3.01-8.52zm24.06-16.05H22.31l96.24 11.03-6.02-11.03z"/><path fill="#25467a" d="M22.31 19.8h90.23v50.13H22.31z"/><path d="M22.31 39.26a18.8 18.8 0 0 0 17-18.71v-.75h-17z" fill="#19273c"/><path fill="#fff" d="M24.83 22.31h85.2v45.11h-85.2z"/><path fill="#25467a" d="M7.27 97.49h120.3V100H7.27z"/><path fill="#19273c" d="M127.57 100L7.27 97.49h120.3V100z"/><path fill="#25467a" d="M70.43 26.81h35.09v5.01H70.43z"/><path fill="#19273c" d="M105.51 29.32l-35.08-2.51h35.08v2.51z"/><path fill="#25467a" d="M29.32 26.81h35.09v14.87H29.32z"/><path fill="#19273c" d="M64.41 29.32l-35.09-2.51h35.09v2.51z"/><path fill="#25467a" d="M70.43 36.84h35.09v5.01H70.43zm0 10.03h17.54v5.01H70.43zm0 10.02h17.54v5.01H70.43zm22.55-10.02h12.53v15.04H92.98z"/><path fill="#19273c" d="M105.51 39.45l-35.08-2.5h35.08v2.5zm-17.54 9.97l-17.54-2.5h17.54v2.5zm0 9.98l-17.54-2.51h17.54v2.51zm17.54-10.03l-12.53-2.5h12.53v2.5z"/><path fill="#25467a" d="M29.32 46.87h35.09v5.01H29.32z"/><path fill="#fe6100" d="M29.32 56.89h21.05v5.01H29.32z"/><path fill="#25467a" d="M55.39 56.89h9.02v5.01h-9.02z"/><path fill="#19273c" d="M64.41 49.42l-35.09-2.5h35.09v2.5zm0 9.98l-9.02-2.51h9.02v2.51zM38.28 26.81h-9v10.36a18.85 18.85 0 0 0 9-10.36z"/><circle cx="18.8" cy="18.8" r="18.8" fill="#1f57a4"/><path d="M18.71 3.94a14.67 14.67 0 0 0-4.64 28.59c.73.14 1-.32 1-.71v-2.73c-4.08.89-4.94-1.73-4.94-1.73a3.89 3.89 0 0 0-1.63-2.15c-1.33-.91.1-.89.1-.89a3.08 3.08 0 0 1 2.25 1.51 3.12 3.12 0 0 0 4.27 1.22 3.12 3.12 0 0 1 .93-2c-3.26-.37-6.68-1.63-6.68-7.25a5.68 5.68 0 0 1 1.51-3.94A5.27 5.27 0 0 1 11 10s1.23-.39 4 1.5a13.91 13.91 0 0 1 7.35 0c2.8-1.9 4-1.5 4-1.5a5.27 5.27 0 0 1 .14 3.88A5.67 5.67 0 0 1 28 17.82c0 5.63-3.43 6.88-6.7 7.24a3.51 3.51 0 0 1 1 2.72v4c0 .46.26.85 1 .7a14.67 14.67 0 0 0-4.59-28.54z" fill="#fff" fill-rule="evenodd"/></svg>