<svg xmlns="http://www.w3.org/2000/svg" viewBox="0 0 127.57 100"><title>tile-github</title><polygon points="112.53 69.92 22.31 69.92 7.27 97.49 127.57 97.49 112.53 69.92" fill="#25467a"/><polygon points="88.47 85.97 46.37 85.97 43.36 94.49 91.48 94.49 88.47 85.97" fill="#19273c"/><polygon points="112.53 69.92 22.31 69.92 118.55 80.95 112.53 69.92" fill="#19273c"/><rect x="22.31" y="19.8" width="90.23" height="50.13" fill="#25467a"/><path d="M22.31,39.26a18.8,18.8,0,0,0,17-18.71c0-.25,0-.5,0-.75h-17Z" fill="#19273c"/><rect x="24.83" y="22.31" width="85.2" height="45.11" fill="#fff"/><rect x="7.27" y="97.49" width="120.3" height="2.51" fill="#25467a"/><polygon points="127.57 100 7.27 97.49 127.57 97.49 127.57 100" fill="#19273c"/><rect x="70.43" y="26.81" width="35.09" height="5.01" fill="#25467a"/><polygon points="105.51 29.32 70.43 26.81 105.51 26.81 105.51 29.32" fill="#19273c"/><rect x="29.32" y="26.81" width="35.09" height="14.87" fill="#25467a"/><polygon points="64.41 29.32 29.32 26.81 64.41 26.81 64.41 29.32" fill="#19273c"/><rect x="70.43" y="36.84" width="35.09" height="5.01" fill="#25467a"/><rect x="70.43" y="46.87" width="17.54" height="5.01" fill="#25467a"/><rect x="70.43" y="56.89" width="17.54" height="5.01" fill="#25467a"/><rect x="92.98" y="46.87" width="12.53" height="15.04" fill="#25467a"/><polygon points="105.51 39.45 70.43 36.95 105.51 36.95 105.51 39.45" fill="#19273c"/><polygon points="87.97 49.42 70.43 46.92 87.97 46.92 87.97 49.42" fill="#19273c"/><polygon points="87.97 59.4 70.43 56.89 87.97 56.89 87.97 59.4" fill="#19273c"/><polygon points="105.51 49.37 92.98 46.87 105.51 46.87 105.51 49.37" fill="#19273c"/><rect x="29.32" y="46.87" width="35.09" height="5.01" fill="#25467a"/><rect x="29.32" y="56.89" width="21.05" height="5.01" fill="#fe6100"/><rect x="55.39" y="56.89" width="9.02" height="5.01" fill="#25467a"/><polygon points="64.41 49.42 29.32 46.92 64.41 46.92 64.41 49.42" fill="#19273c"/><polygon points="64.41 59.4 55.39 56.89 64.41 56.89 64.41 59.4" fill="#19273c"/><path d="M38.28,26.81h-9V37.17A18.85,18.85,0,0,0,38.28,26.81Z" fill="#19273c"/><circle cx="18.8" cy="18.8" r="18.8" fill="#1f57a4"/><path d="M18.71,3.94a14.67,14.67,0,0,0-4.64,28.59c.73.14,1-.32,1-.71s0-1.51,0-2.73c-4.08.89-4.94-1.73-4.94-1.73a3.89,3.89,0,0,0-1.63-2.15c-1.33-.91.1-.89.1-.89a3.08,3.08,0,0,1,2.25,1.51,3.12,3.12,0,0,0,4.27,1.22,3.12,3.12,0,0,1,.93-2c-3.26-.37-6.68-1.63-6.68-7.25a5.68,5.68,0,0,1,1.51-3.94A5.27,5.27,0,0,1,11,10s1.23-.39,4,1.5a13.91,13.91,0,0,1,7.35,0c2.8-1.9,4-1.5,4-1.5a5.27,5.27,0,0,1,.14,3.88,5.67,5.67,0,0,1,1.51,3.94c0,5.63-3.43,6.88-6.7,7.24a3.51,3.51,0,0,1,1,2.72c0,2,0,3.54,0,4s.26.85,1,.7A14.67,14.67,0,0,0,18.71,3.94Z" fill="#fff" fill-rule="evenodd"/></svg>
